# xmcd CD database file
#
# Track frame offsets:
#	150
#	23961
#	38650
#	76247
#	94864
#	115175
#	133443
#	153264
#	171024
#	194525
#
# Disc length: 2895 seconds
#
# Revision: 0
# Processed by: cddbd v1.5.2PL0 Copyright (c) Steve Scherf et al.
# Submitted via: CDex 1.79
#
DISCID=7d0b4d0a
DTITLE=Various Artist - Salsa Hits CD1
DYEAR=2009
DGENRE=Salsa
TTITLE0=A La Buena Si - Celia Cruz Y La Son Poncena
TTITLE1=Virgen De Regla - Tito Puente
TTITLE2=El Faisan - Johnny Pacheco
TTITLE3=Chonqui - Willie Colon Y Hector Lavoe
TTITLE4=No Me Paren La Salsa - Ray Barretto
TTITLE5=Si Te Tuviera - Tipica 73
TTITLE6=No Puedo Mas - Charlie Palmieri
TTITLE7=Sonerito - Ismael Miranda
TTITLE8=Para Puerto Rico Voy - Joe Bataan
TTITLE9=Trucutu - Tommy Olivencia
EXTD=YEAR: 2009
EXTT0=
EXTT1=
EXTT2=
EXTT3=
EXTT4=
EXTT5=
EXTT6=
EXTT7=
EXTT8=
EXTT9=
PLAYORDER=
